<svg width="31" height="22" viewBox="0 0 31 22" fill="none" xmlns="http://www.w3.org/2000/svg">
  <path d="M3.08579 11.4141C2.30474 10.633 2.30474 9.36668 3.08579 8.58564C3.86684 7.80459 5.13317 7.80459 5.91421 8.58564L13.4224 16.1815C14.2034 16.9625 14.2034 18.2289 13.4224 19.0099C12.6413 19.791 11.375 19.791 10.5939 19.0099L3.08579 11.4141Z" fill="#D8D8D8"/>
  <mask id="mask0_34_116" style="mask-type:luminance" maskUnits="userSpaceOnUse" x="2" y="8" width="13" height="12">
  <path d="M3.08579 11.4141C2.30474 10.633 2.30474 9.36668 3.08579 8.58564C3.86684 7.80459 5.13317 7.80459 5.91421 8.58564L13.4224 16.1815C14.2034 16.9625 14.2034 18.2289 13.4224 19.0099C12.6413 19.791 11.375 19.791 10.5939 19.0099L3.08579 11.4141Z" fill="white"/>
  </mask>
  <g mask="url(#mask0_34_116)">
  <path d="M-7.5 -14L-7.5 34H40.5V-14H-7.5Z" fill="#F1902B"/>
  </g>
  <path d="M27.0858 0.585789C27.8668 -0.195261 29.1332 -0.195261 29.9142 0.585789C30.6953 1.36684 30.6953 2.63317 29.9142 3.41422L11.9142 21.4142C11.1332 22.1953 9.86683 22.1953 9.08579 21.4142L1.08579 13.4142C0.304738 12.6332 0.304738 11.3668 1.08579 10.5858C1.86683 9.80474 3.13316 9.80474 3.91421 10.5858L10.5 17.1716L27.0858 0.585789Z" fill="black"/>
  <mask id="mask1_34_116" style="mask-type:luminance" maskUnits="userSpaceOnUse" x="0" y="0" width="31" height="22">
  <path d="M27.0858 0.585789C27.8668 -0.195261 29.1332 -0.195261 29.9142 0.585789C30.6953 1.36684 30.6953 2.63317 29.9142 3.41422L11.9142 21.4142C11.1332 22.1953 9.86683 22.1953 9.08579 21.4142L1.08579 13.4142C0.304738 12.6332 0.304738 11.3668 1.08579 10.5858C1.86683 9.80474 3.13316 9.80474 3.91421 10.5858L10.5 17.1716L27.0858 0.585789Z" fill="white"/>
  </mask>
  <g mask="url(#mask1_34_116)">
  <path d="M-7.5 -14L-7.5 34H40.5V-14H-7.5Z" fill="#034F29"/>
  </g>
</svg>